# xmcd
#
# Track frame offsets: 
#        150
#        17005
#        32716
#        70524
#        86196
#        103304
#        132748
#        151923
#        174402
#
# Disc length: 2539 seconds
#
# Revision: 5
# Processed by: cddbd v1.5.2PL0 Copyright (c) Steve Scherf et al.
# Submitted via: ExactAudioCopyFreeDBPlugin 1.0
#
DISCID=7309e909
DTITLE=Das Dritte Ohr - PUR
DYEAR=1977
DGENRE=Blues
TTITLE0=Rollin' and Thumblin'
TTITLE1=Snatch It Back
TTITLE2=Driftin' and Driftin'
TTITLE3=Slippin' Time
TTITLE4=Can't Hold Out
TTITLE5=Sweet Lil' Woman
TTITLE6=Walking Blues
TTITLE7=White Line
TTITLE8=Shake Your Moneymaker
EXTD=YEAR: 1977
EXTT0=
EXTT1=
EXTT2=
EXTT3=
EXTT4=
EXTT5=
EXTT6=
EXTT7=
EXTT8=
PLAYORDER=
